<svg width="30" height="30" viewBox="0 0 30 30" fill="none" xmlns="http://www.w3.org/2000/svg">
<path d="M29.0535 10C28.9875 10.0421 22.3767 14.212 14.9999 14.2559C7.64051 14.2121 1.01209 10.0418 0.946406 10L0 11.4813C0.0692578 11.5255 1.66283 12.5369 4.18406 13.5994L2.10932 16.3656L3.51557 17.4203L5.8834 14.2632C6.77209 14.5834 7.7676 14.9003 8.84127 15.1747L7.29978 18.2577L8.87197 19.0438L10.6093 15.569C11.7666 15.7892 12.9862 15.9452 14.2382 15.996V19.5297H15.996V15.9846C17.2428 15.9208 18.4556 15.7553 19.6041 15.5275L21.3623 19.0439L22.9345 18.2577L21.3659 15.1206C22.4346 14.8395 23.4229 14.5183 24.3007 14.1963L26.7187 17.4203L28.1249 16.3656L25.9937 13.524C28.4121 12.4895 29.9322 11.5245 29.9999 11.4813L29.0535 10Z" fill="#20B0F7"/>
</svg>
