<svg width="30" height="30" viewBox="0 0 30 30" fill="none" xmlns="http://www.w3.org/2000/svg">
<g clip-path="url(#clip0)">
<path d="M29.8093 14.4164C29.5413 14.0498 23.1556 5.43945 14.9999 5.43945C6.84412 5.43945 0.458087 14.0498 0.190371 14.416C-0.0634572 14.7638 -0.0634572 15.2356 0.190371 15.5834C0.458087 15.95 6.84412 24.5603 14.9999 24.5603C23.1556 24.5603 29.5413 15.95 29.8093 15.5837C30.0635 15.2359 30.0635 14.7638 29.8093 14.4164ZM14.9999 22.5823C8.99228 22.5823 3.78909 16.8675 2.24883 14.9992C3.7871 13.1293 8.97939 7.41746 14.9999 7.41746C21.0071 7.41746 26.21 13.1313 27.7509 15.0006C26.2126 16.8704 21.0203 22.5823 14.9999 22.5823Z" fill="#20B0F7"/>
<path d="M14.9995 9.06616C11.7275 9.06616 9.06543 11.7283 9.06543 15.0003C9.06543 18.2723 11.7275 20.9343 14.9995 20.9343C18.2715 20.9343 20.9336 18.2723 20.9336 15.0003C20.9336 11.7283 18.2715 9.06616 14.9995 9.06616ZM14.9995 18.9563C12.8181 18.9563 11.0435 17.1816 11.0435 15.0003C11.0435 12.8189 12.8181 11.0442 14.9995 11.0442C17.1809 11.0442 18.9555 12.8189 18.9555 15.0003C18.9555 17.1816 17.181 18.9563 14.9995 18.9563Z" fill="#20B0F7"/>
</g>
<defs>
<clipPath id="clip0">
<rect width="30" height="30" fill="white"/>
</clipPath>
</defs>
</svg>
